<svg id="notifications_none_black_24dp" xmlns="http://www.w3.org/2000/svg" width="24" height="24" viewBox="0 0 24 24">
  <path id="Path_1033" data-name="Path 1033" d="M0,0H24V24H0Z" fill="none"/>
  <path id="Path_1034" data-name="Path 1034" d="M19.29,17.29,18,16V11c0-3.07-1.64-5.64-4.5-6.32V4a1.5,1.5,0,0,0-3,0v.68C7.63,5.36,6,7.92,6,11v5L4.71,17.29A1,1,0,0,0,5.41,19H18.58a1,1,0,0,0,.71-1.71ZM16,17H8V11c0-2.48,1.51-4.5,4-4.5s4,2.02,4,4.5Zm-4,5a2.006,2.006,0,0,0,2-2H10A2,2,0,0,0,12,22Z" fill="#242222"/>
</svg>