<svg id="Group_597" data-name="Group 597" xmlns="http://www.w3.org/2000/svg" width="23.279" height="21.26" viewBox="0 0 23.279 21.26">
  <path id="Path_1016" data-name="Path 1016" d="M18.467,4.5a8.63,8.63,0,0,0-5.822,1.916A8.63,8.63,0,0,0,6.822,4.5,9.749,9.749,0,0,0,2.292,5.509,2.664,2.664,0,0,0,1,7.872V22.28c0,1.66,1.292,2.887,2.625,2.478a10.958,10.958,0,0,1,3.2-.46,9.576,9.576,0,0,1,4.827,1.175,1.848,1.848,0,0,0,1.98,0A9.447,9.447,0,0,1,18.457,24.3a10.958,10.958,0,0,1,3.2.46c1.334.422,2.625-.8,2.625-2.478V7.872a2.664,2.664,0,0,0-1.292-2.363A9.677,9.677,0,0,0,18.467,4.5Zm3.705,16.26a1.144,1.144,0,0,1-1.27,1.252,11.13,11.13,0,0,0-2.435-.255,11.133,11.133,0,0,0-5.822,1.916V8.971a11.133,11.133,0,0,1,5.822-1.916,11.227,11.227,0,0,1,2.858.358,1.262,1.262,0,0,1,.847,1.252Z" transform="translate(-1 -4.5)" fill="#D5320B"/>
  <path id="Path_1017" data-name="Path 1017" d="M14.032,11.01a.786.786,0,0,1-.76-.52.735.735,0,0,1,.514-.94,15.186,15.186,0,0,1,5.734-.45.765.765,0,0,1,.706.83.793.793,0,0,1-.888.66,13.494,13.494,0,0,0-5.06.39A2.372,2.372,0,0,1,14.032,11.01Z" transform="translate(-0.493 -3.079)" fill="#D5320B"/>
  <path id="Path_1018" data-name="Path 1018" d="M14.032,13.67a.786.786,0,0,1-.76-.52.735.735,0,0,1,.514-.94,15.167,15.167,0,0,1,5.734-.45.765.765,0,0,1,.706.83.793.793,0,0,1-.888.66,13.494,13.494,0,0,0-5.06.39A1.106,1.106,0,0,1,14.032,13.67Z" transform="translate(-0.493 -2.24)" fill="#D5320B"/>
  <path id="Path_1019" data-name="Path 1019" d="M14.032,16.33a.786.786,0,0,1-.76-.52.735.735,0,0,1,.514-.94,15.167,15.167,0,0,1,5.734-.45.765.765,0,0,1,.706.83.8.8,0,0,1-.888.66,13.494,13.494,0,0,0-5.06.39A1.105,1.105,0,0,1,14.032,16.33Z" transform="translate(-0.493 -1.402)" fill="#D5320B"/>
</svg>
