<svg id="format_list_bulleted_black_24dp" xmlns="http://www.w3.org/2000/svg" width="24" height="24" viewBox="0 0 24 24">
  <path id="Path_961" data-name="Path 961" d="M0,0H24V24H0Z" fill="none"/>
  <path id="Path_962" data-name="Path 962" d="M4,10.5A1.5,1.5,0,1,0,5.5,12,1.5,1.5,0,0,0,4,10.5Zm0-6A1.5,1.5,0,1,0,5.5,6,1.5,1.5,0,0,0,4,4.5Zm0,12A1.5,1.5,0,1,0,5.5,18,1.5,1.5,0,0,0,4,16.5ZM8,19H20a1,1,0,0,0,0-2H8a1,1,0,0,0,0,2Zm0-6H20a1,1,0,0,0,0-2H8a1,1,0,0,0,0,2ZM7,6A1,1,0,0,0,8,7H20a1,1,0,0,0,0-2H8A1,1,0,0,0,7,6Z" fill="#fff"/>
</svg>
