<?xml version="1.0" standalone="no"?>
<!DOCTYPE svg PUBLIC "-//W3C//DTD SVG 20010904//EN"
 "http://www.w3.org/TR/2001/REC-SVG-20010904/DTD/svg10.dtd">
<svg version="1.0" xmlns="http://www.w3.org/2000/svg"
 width="512.000000pt" height="512.000000pt" viewBox="0 0 512.000000 512.000000"
 preserveAspectRatio="xMidYMid meet">

<g transform="translate(0.000000,512.000000) scale(0.100000,-0.100000)"
fill="#fff" stroke="none">
<path d="M3914 4529 c-669 -522 -646 -503 -697 -568 -51 -64 -100 -155 -123
-228 -8 -27 -19 -118 -24 -208 -14 -264 -52 -400 -159 -567 -20 -32 -40 -58
-44 -58 -4 0 -90 78 -190 173 -671 640 -1305 1121 -1816 1379 -271 137 -508
214 -692 225 l-96 6 -37 -34 -37 -34 1110 -1116 1109 -1116 -880 -879 c-706
-705 -885 -889 -904 -929 -59 -124 -6 -277 118 -339 67 -33 161 -35 228 -5 35
15 245 219 928 902 l882 882 853 -852 c659 -660 862 -857 897 -872 59 -27 159
-28 216 -2 89 40 145 125 152 228 8 119 25 99 -670 803 -576 584 -628 634
-686 661 -221 100 -392 289 -409 449 l-5 55 84 81 c99 95 178 151 291 205 115
55 216 78 408 94 223 18 319 51 441 151 26 22 252 298 502 614 l456 575 -55
55 -55 55 -24 -25 c-13 -14 -261 -277 -551 -585 -291 -308 -531 -561 -534
-563 -4 -1 -36 27 -71 63 l-65 65 573 573 572 572 -48 48 -47 47 -575 -575
-575 -575 -52 52 -53 53 570 570 c313 313 570 575 570 580 0 6 -23 33 -50 60
l-50 50 -575 -575 -575 -575 -60 60 c-33 33 -60 63 -60 66 0 4 265 256 590
561 l590 553 -47 47 c-26 27 -50 48 -53 48 -4 0 -226 -172 -496 -381z"/>
</g>
</svg>
