<svg id="home_black_36dp" xmlns="http://www.w3.org/2000/svg" width="28" height="28" viewBox="0 0 28 28">
  <path id="Path_1022" data-name="Path 1022" d="M0,0H28V28H0Z" fill="none" />
  <path id="Path_1023" data-name="Path 1023"
    d="M11.28,23.535V17.086h4.711v6.448a1.241,1.241,0,0,0,1.178,1.29H20.7a1.241,1.241,0,0,0,1.178-1.29V14.507h2a.65.65,0,0,0,.389-1.122L14.425,3.674a1.111,1.111,0,0,0-1.578,0L3,13.385a.653.653,0,0,0,.389,1.122h2v9.028a1.241,1.241,0,0,0,1.178,1.29H10.1A1.241,1.241,0,0,0,11.28,23.535Z"
    transform="translate(0.361 -0.085)" fill="#D5320B" />
</svg>