<svg id="lock_open_black_24dp" xmlns="http://www.w3.org/2000/svg" width="24" height="24" viewBox="0 0 24 24">
  <path id="Path_1078" data-name="Path 1078" d="M0,0H24V24H0Z" fill="none"/>
  <path id="Path_1079" data-name="Path 1079" d="M12,13a2,2,0,1,0,2,2A2.006,2.006,0,0,0,12,13Zm6-5H17V6A5,5,0,0,0,7.16,4.75a1,1,0,1,0,1.94.5A3,3,0,0,1,15,6V8H6a2.006,2.006,0,0,0-2,2V20a2.006,2.006,0,0,0,2,2H18a2.006,2.006,0,0,0,2-2V10A2.006,2.006,0,0,0,18,8Zm0,11a1,1,0,0,1-1,1H7a1,1,0,0,1-1-1V11a1,1,0,0,1,1-1H17a1,1,0,0,1,1,1Z" fill="#242222"/>
</svg>