<svg xmlns="http://www.w3.org/2000/svg" xmlns:xlink="http://www.w3.org/1999/xlink" width="398.722" height="152.748" viewBox="0 0 398.722 152.748">
  <defs>
    <filter id="Path_1" x="0" y="0" width="115.452" height="124.247" filterUnits="userSpaceOnUse">
      <feOffset dy="3" input="SourceAlpha"/>
      <feGaussianBlur stdDeviation="1.5" result="blur"/>
      <feFlood flood-opacity="0.161"/>
      <feComposite operator="in" in2="blur"/>
      <feComposite in="SourceGraphic"/>
    </filter>
    <filter id="Path_3" x="351.011" y="52.85" width="47.711" height="60.761" filterUnits="userSpaceOnUse">
      <feOffset dy="3" input="SourceAlpha"/>
      <feGaussianBlur stdDeviation="1.5" result="blur-2"/>
      <feFlood flood-opacity="0.161"/>
      <feComposite operator="in" in2="blur-2"/>
      <feComposite in="SourceGraphic"/>
    </filter>
    <filter id="Path_4" x="96.201" y="53.192" width="203.981" height="99.557" filterUnits="userSpaceOnUse">
      <feOffset dy="3" input="SourceAlpha"/>
      <feGaussianBlur stdDeviation="1.5" result="blur-3"/>
      <feFlood flood-opacity="0.161"/>
      <feComposite operator="in" in2="blur-3"/>
      <feComposite in="SourceGraphic"/>
    </filter>
    <filter id="Path_5" x="290.07" y="53.567" width="63.779" height="99.181" filterUnits="userSpaceOnUse">
      <feOffset dy="3" input="SourceAlpha"/>
      <feGaussianBlur stdDeviation="1.5" result="blur-4"/>
      <feFlood flood-opacity="0.161"/>
      <feComposite operator="in" in2="blur-4"/>
      <feComposite in="SourceGraphic"/>
    </filter>
  </defs>
  <g id="LOGO" transform="translate(4.5 1.5)">
    <g transform="matrix(1, 0, 0, 1, -4.5, -1.5)" filter="url(#Path_1)">
      <path id="Path_1-2" data-name="Path 1" d="M64.647-485.4c-18.022.6-37.716,6.376-51.919,15.244-1.736,1.073-3.661,2.367-4.292,2.872L7.3-466.37l.284,1.641a42.338,42.338,0,0,0,4.924,12.341,11.371,11.371,0,0,0,1.831,2.651,9.283,9.283,0,0,0,3.03-1.736c21.178-15.181,48.573-20.957,72.055-15.181,6.691,1.641,12.025,4.261,14.929,7.322l1.073,1.1-.631,1.452c-2.115,4.7-8.143,10.573-15.97,15.465a123.84,123.84,0,0,1-24.807,11.236,187.235,187.235,0,0,1-18.211,4.892l-1.294.19.6-2.778c1.389-6.218,4.261-16.917,6.123-22.693.158-.5-3.63-4.576-5.807-6.249-1.01-.789-2.556-1.831-3.44-2.367-1.483-.884-1.673-.915-1.925-.411-1.262,2.4-7.038,21.4-9.847,32.445l-1.042,4.166-1.767.189c-.947.095-4.324.284-7.449.41l-5.744.189.821,1.768a70.827,70.827,0,0,0,5.744,9.879l1.578,2.146h1.736a6.438,6.438,0,0,1,1.736.126c0,.063-.694,3.5-1.547,7.638-1.641,7.827-2.683,13.761-3.03,17.043l-.221,1.925,1.547,1.262a35.958,35.958,0,0,0,11.52,6.281l2.146.726.126-.694c.095-.379.316-2.462.5-4.608.5-5.334,1.988-16.57,3.219-24.271.852-5.4,1.073-6.344,1.42-5.871.221.284,3,3.283,6.155,6.659a230.671,230.671,0,0,0,25.754,23.734c3.787,2.872,11.331,7.89,12.246,8.111a5.325,5.325,0,0,0,2.809-.758c2.935-1.389,6.754-5.271,9.153-9.311a23.809,23.809,0,0,0,1.7-3.156c-.063-.063-1.547-.726-3.282-1.452a215.327,215.327,0,0,1-31.877-18.116c-4.924-3.377-11.552-8.206-11.425-8.3.032-.031,2.714-.726,5.934-1.515,24.965-6.186,43.587-17.3,51.477-30.646a25.44,25.44,0,0,0,2.146-21.4,28.81,28.81,0,0,0-5.839-8.585c-6.628-6.628-18.59-11.047-31.719-11.678A100.646,100.646,0,0,0,64.647-485.4Z" transform="translate(-2.8 486.95)" fill="#d5320b"/>
    </g>
    <g transform="matrix(1, 0, 0, 1, -4.5, -1.5)" filter="url(#Path_3)">
      <path id="Path_3-2" data-name="Path 3" d="M1126.756-317.274c-1.546,2.367-5.365,14.739-6.533,21.052-.947,5.271-1.042,13.13-.19,16.885a26.66,26.66,0,0,0,4.7,9.784c1.7,1.862,4.387,3.314,6.154,3.314,3.409-.032,8.175-1.894,11.489-4.482,6.028-4.671,11.773-12.972,14.771-21.241l1.01-2.809-1.641-1.578c-.947-.947-1.673-1.452-1.768-1.231-.063.221-1.073,1.925-2.209,3.819-5.428,9.09-12.151,16.033-19.094,19.631-3.472,1.83-3.535,1.8-3.283-1.2.789-8.995,4.135-20.263,9.437-31.751l1.294-2.809-1.483-1.326a47.45,47.45,0,0,0-10.068-6L1127.2-318Z" transform="translate(-763.94 372.35)" fill="#d5320b"/>
    </g>
    <g transform="matrix(1, 0, 0, 1, -4.5, -1.5)" filter="url(#Path_4)">
      <path id="Path_4-2" data-name="Path 4" d="M334.035-316.6a26.365,26.365,0,0,0-7.669,3.914c-6.344,4.766-12.088,13.982-13.856,22.251a35,35,0,0,0,.031,10.889,17.01,17.01,0,0,0,12.467,13.288,32.731,32.731,0,0,0,12.625-.126,32.268,32.268,0,0,0,9.689-4.545,48.977,48.977,0,0,0,8.206-7.638l.915-1.231.883,2.4a20.24,20.24,0,0,0,5.208,7.733c3.914,3.125,9.658,4.576,15.371,3.882,6.786-.821,13.351-4.261,18.779-9.847l2.115-2.146.379,1.483c1.01,3.756,4.166,7.8,7.164,9.216,6.123,2.872,10.983,1.736,16.664-3.945a44.084,44.084,0,0,0,4.734-5.65l1.894-2.777.158,2.935c.221,3.661.979,5.965,2.493,7.543,1.8,1.894,4.8,2.4,8.616,1.42,4.513-1.2,7.922-3.346,12.341-7.764a32.649,32.649,0,0,1,3.062-2.967c0,.063-.284,2.3-.631,4.955-1.8,14.234-3.156,29.542-3.156,35.917v3.977l1.2,1.136a23.724,23.724,0,0,0,5.9,3.914,25.091,25.091,0,0,0,7.133,2.02c.915,0,.978-.063.821-.884-.726-3.6-1.136-14.3-.821-20.263a112.785,112.785,0,0,1,2.052-16.1c.252-1.136.631-2.778.821-3.63a21.993,21.993,0,0,1,.726-2.651l.379-1.1,1.862,1.736a42.762,42.762,0,0,0,3.345,2.809l1.483,1.042,1.988-.568a35.8,35.8,0,0,0,15.5-9.184,40.846,40.846,0,0,0,11.173-18.748c1.041-3.63,1.326-9.942.6-13.035-1.01-4.324-3.061-7.133-6.344-8.743-1.326-.663-2.051-.789-4.419-.789-2.683,0-2.967.063-5.113,1.2-5.681,3.062-11.741,11.646-17.548,25-1.294,2.935-2.525,5.9-2.714,6.533-.41,1.231-1.452,1.673-1.8.757-.379-1.042,2.714-11.994,5.46-19.253l1.42-3.787-1.042-.884c-2.683-2.3-7.669-4.955-10.163-5.429-1.073-.19-1.2-.158-1.515.663-.663,1.673-2.462,9.09-3.472,14.14-.947,4.924-1.042,5.113-2.746,7.733a54.662,54.662,0,0,1-11.741,13.035c-2.43,1.862-2.462,1.831-2.493-2.777q-.047-8.048,4.861-19.158L448.7-301.8l-1.325-.884a32.939,32.939,0,0,0-6.691-3.566c-2.083-.789-2.241-.915-2.714-2.241-1.894-5.334-7.449-8.711-13.824-8.4a10.479,10.479,0,0,0-4.829,1.1,26.425,26.425,0,0,0-8.458,6.281,51.061,51.061,0,0,0-10.51,17.391c-.978,2.935-1.894,4.292-5.239,7.764a49.231,49.231,0,0,1-19.189,12.719c-2.525.884-2.588.884-3.251.284-1.01-.915-2.809-4.8-3.314-7.259-1.925-9.184,2.209-21.178,9.974-28.942,1.989-1.988,5.65-4.671,6.375-4.671.442,0,0,2.9-.852,5.208a34.885,34.885,0,0,1-2.525,4.892,12.27,12.27,0,0,0-1.673,3.282,38.273,38.273,0,0,0,4.419,3.251l4.261,2.935,1.452-1.61a19.629,19.629,0,0,0,3.977-7.985,12.113,12.113,0,0,0-9.184-14.361,20.882,20.882,0,0,0-7.8.095c-8.648,2.3-17.012,11.772-20.61,23.324-1.168,3.693-2.02,4.892-7.354,10.163-5.712,5.65-11.267,9.279-17.58,11.457l-2.746.978-.631-.694c-1.673-1.831-3.061-6.028-3.283-9.816l-.095-1.894,2.841-.41a29.657,29.657,0,0,0,16.728-8.143c4.292-4.292,6.249-8.459,6.281-13.256.031-2.62-.063-3.03-1.01-4.955-2.241-4.545-6.975-7.228-12.688-7.164A23.687,23.687,0,0,0,334.035-316.6Zm7.575,11.646A22.3,22.3,0,0,1,329.584-289.8a21.69,21.69,0,0,1-2.809,1.263c-.694,0,.979-4.892,3.093-9.09,2.43-4.861,6.975-10.668,10.447-13.414l1.578-1.262.095,2.525A23.991,23.991,0,0,1,341.609-304.952Zm87.236-3.535a27.044,27.044,0,0,1-1.42,7.07c-.158.41.316.884,2.02,2.02a9.817,9.817,0,0,1,2.241,1.767c0,.568-3.566,7.354-5.176,9.816-3.472,5.4-8.08,10.352-11.993,12.909-1.989,1.262-2.841,1.483-3.125.726-.442-1.136-.568-5.3-.253-8.048a40.817,40.817,0,0,1,8.459-20.894,24.482,24.482,0,0,1,6.723-6.344C428.53-310.791,428.846-310.664,428.846-308.487Zm65.869,5.649a26.345,26.345,0,0,1-3.03,11.93c-3.44,7.2-9.595,13.224-16.065,15.781-2.935,1.168-3.535,1.231-3.535.442,0-1.515,3.63-9.279,6.786-14.518,3.188-5.239,9.563-13.161,12.215-15.181a28.14,28.14,0,0,1,3.661-2.462A25.913,25.913,0,0,1,494.715-302.837Z" transform="translate(-211.4 371.61)" fill="#d5320b"/>
    </g>
    <g transform="matrix(1, 0, 0, 1, -4.5, -1.5)" filter="url(#Path_5)">
      <path id="Path_5-2" data-name="Path 5" d="M966.8-315.405c-5.208,1.736-10.889,8.269-16.128,18.59a148.078,148.078,0,0,0-6.312,14.329.836.836,0,0,1-1.609.221c-.442-1.136,3-12.972,6-20.7l.852-2.146-.852-.789a30.654,30.654,0,0,0-10.415-5.649c-1.262-.253-1.357-.063-2.588,4.45-3.787,14.045-7.891,43.965-9.185,67.131a64.937,64.937,0,0,0-.158,6.849,9.577,9.577,0,0,0,1.956,2.209c2.746,2.525,9.248,5.365,12.246,5.365h.884l-.189-1.988c-.883-9.311-.978-14.139-.441-20.957.284-3.787.821-8.521,1.167-10.51a86.5,86.5,0,0,1,2.462-10.6c.19-.347.632-.095,1.957,1.168a33.678,33.678,0,0,0,3.346,2.683l1.641,1.1,1.989-.5a43.032,43.032,0,0,0,8.647-3.756c5.555-3.314,11.394-9.658,14.739-16,4.64-8.774,5.65-18.716,2.557-24.871a11.347,11.347,0,0,0-4.987-5.05A13.031,13.031,0,0,0,966.8-315.405Zm2.052,12.025c0,11.583-7.575,23.545-18.085,28.563-2.178,1.042-4.545,1.673-4.8,1.294-.221-.347,1.2-3.977,2.777-7.259a78.637,78.637,0,0,1,13.635-20.168c1.831-1.957,5.65-5.082,6.186-5.082A6.46,6.46,0,0,1,968.856-303.38Z" transform="translate(-631.79 370.8)" fill="#d5320b"/>
    </g>
  </g>
</svg>
