<svg id="help_black_24dp" xmlns="http://www.w3.org/2000/svg" width="24" height="24" viewBox="0 0 24 24">
  <path id="Path_1085" data-name="Path 1085" d="M0,0H24V24H0Z" fill="none"/>
  <path id="Path_1086" data-name="Path 1086" d="M12,2A10,10,0,1,0,22,12,10,10,0,0,0,12,2Zm1,17H11V17h2Zm2.07-7.75-.9.92a3.5,3.5,0,0,0-1.04,1.69A4.587,4.587,0,0,0,13,15H11v-.5a4.046,4.046,0,0,1,.22-1.31,4,4,0,0,1,.95-1.52l1.24-1.26a1.963,1.963,0,0,0,.55-1.8,1.991,1.991,0,0,0-1.39-1.53A2.016,2.016,0,0,0,10.1,8.35.883.883,0,0,1,9.28,9h-.3a.866.866,0,0,1-.82-1.12,4.008,4.008,0,0,1,3.23-2.83,4.068,4.068,0,0,1,3.87,1.8A3.307,3.307,0,0,1,15.07,11.25Z" fill="#242222"/>
</svg>