<?xml version="1.0" standalone="no"?>
<!DOCTYPE svg PUBLIC "-//W3C//DTD SVG 20010904//EN"
 "http://www.w3.org/TR/2001/REC-SVG-20010904/DTD/svg10.dtd">
<svg version="1.0" xmlns="http://www.w3.org/2000/svg"
     width="40.002" height="40.003" viewBox="0 0 512.000000 512.000000"
 preserveAspectRatio="xMidYMid meet">

<g transform="translate(0.000000,512.000000) scale(0.100000,-0.100000)"
fill="#000" stroke="none">
<path d="M2480 4867 c-49 -16 -133 -102 -148 -153 -9 -32 -12 -356 -12 -1370
l0 -1329 -268 267 c-286 286 -304 299 -398 299 -170 0 -286 -178 -216 -333 15
-32 151 -174 513 -534 526 -523 516 -514 611 -514 92 0 94 1 612 518 327 326
494 500 507 527 25 53 25 147 0 200 -39 83 -123 136 -216 136 -93 0 -112 -13
-397 -299 l-268 -267 0 1329 c0 998 -3 1339 -12 1368 -17 59 -88 133 -145 152
-53 18 -112 19 -163 3z"/>
<path d="M400 2787 c-52 -17 -133 -102 -148 -157 -10 -35 -12 -279 -10 -1065
l3 -1020 32 -67 c44 -93 100 -151 191 -196 l76 -37 2016 0 2016 0 76 37 c91
45 147 103 191 196 l32 67 3 1020 c2 763 0 1031 -9 1063 -17 61 -87 136 -146
156 -97 33 -175 15 -248 -59 -32 -31 -55 -65 -63 -91 -9 -31 -12 -272 -12
-978 l0 -936 -1840 0 -1840 0 0 936 c0 695 -3 947 -12 976 -17 59 -88 133
-145 152 -53 18 -112 19 -163 3z"/>
</g>
</svg>
