<svg id="thumb_up_alt_black_24dp" xmlns="http://www.w3.org/2000/svg" width="24" height="24" viewBox="0 0 24 24">
  <path id="Path_1089" data-name="Path 1089" d="M0,0H24V24H0Z" fill="none" opacity="0.87"/>
  <path id="Path_1090" data-name="Path 1090" d="M13.12,2.06,7.58,7.6A2,2,0,0,0,7,9.01V19a2.006,2.006,0,0,0,2,2h9a2.014,2.014,0,0,0,1.84-1.21l3.26-7.61A3,3,0,0,0,20.34,8H14.69l.95-4.58a1.508,1.508,0,0,0-.41-1.37,1.488,1.488,0,0,0-2.11.01ZM3,21a2.006,2.006,0,0,0,2-2V11a2,2,0,0,0-4,0v8A2.006,2.006,0,0,0,3,21Z" fill="#242222"/>
</svg>